<svg width="16" height="18" viewBox="0 0 16 18" fill="none" xmlns="http://www.w3.org/2000/svg">
<g clip-path="url(#clip0_2002_3145)">
<path d="M7.87519 13.1175C6.98784 12.0041 6.46612 11.0282 6.29315 10.1932C5.50038 7.09945 10.2521 7.09945 9.45933 10.1932C9.26772 11.0457 8.74601 12.0213 7.8773 13.1175H7.87519ZM12.732 15.692C11.2533 16.3357 9.7905 15.3095 8.53788 13.9177C12.1906 9.34488 10.1589 6.88641 7.87519 6.88641C5.9444 6.88641 4.88128 8.52152 5.29894 10.4196C5.54257 11.4458 6.18593 12.613 7.21249 13.9177C6.06886 15.185 5.08378 15.77 4.21894 15.8484C2.46112 16.1096 1.08616 14.4049 1.7123 12.6461C2.24315 11.2693 5.63995 4.51863 5.78585 4.15371C6.33956 3.09656 6.68444 2.13574 7.87343 2.13574C9.01038 2.13574 9.39921 3.0477 9.99581 4.24055C11.2614 6.72328 13.137 10.4801 14.0332 12.6461C14.4962 13.8087 13.985 15.1523 12.732 15.692ZM14.3844 10.9065C9.85343 1.26316 9.60241 1.125 7.87519 1.125C6.27487 1.125 5.5946 2.2384 4.89886 3.68402C1.16667 11.148 0.804912 12.2059 0.773623 12.298C-0.113017 14.7354 1.7137 16.875 3.92468 16.875C4.68792 16.875 6.0555 16.662 7.87519 14.6813C9.93815 16.9235 11.4351 16.875 11.8257 16.875C14.0367 16.8768 15.8634 14.7354 14.976 12.298C14.9767 12.1613 14.3847 10.9304 14.3847 10.9065H14.3844Z" fill="white"/>
</g>
<defs>
<clipPath id="clip0_2002_3145">
<path d="M0 0H15.75V18H0V0Z" fill="white"/>
</clipPath>
</defs>
</svg>
