<svg width="27" height="30" viewBox="0 0 27 30" fill="none" xmlns="http://www.w3.org/2000/svg">
<path d="M13.1248 21.8625C11.6459 20.0068 10.7764 18.3803 10.4881 16.9887C9.16681 11.8324 17.0863 11.8324 15.7651 16.9887C15.4457 18.4096 14.5762 20.0355 13.1283 21.8625H13.1248ZM21.2195 26.1533C18.7551 27.2262 16.317 25.5158 14.2293 23.1961C20.3172 15.5748 16.9311 11.4773 13.1248 11.4773C9.90685 11.4773 8.13498 14.2025 8.83107 17.366C9.23713 19.0764 10.3094 21.0217 12.0203 23.1961C10.1143 25.3084 8.47248 26.2834 7.03107 26.4141C4.10138 26.8494 1.80978 24.0082 2.85334 21.0768C3.7381 18.7822 9.39943 7.53105 9.6426 6.92285C10.5654 5.16094 11.1403 3.55957 13.1219 3.55957C15.0168 3.55957 15.6649 5.07949 16.6592 7.06758C18.7686 11.2055 21.8945 17.4668 23.3881 21.0768C24.1598 23.0145 23.3078 25.2539 21.2195 26.1533ZM23.9735 18.1775C16.4219 2.10527 16.0035 1.875 13.1248 1.875C10.4576 1.875 9.32384 3.73066 8.16427 6.14004C1.94396 18.5801 1.34103 20.3432 1.28888 20.4967C-0.188851 24.559 2.85568 28.125 6.54064 28.125C7.81271 28.125 10.092 27.7699 13.1248 24.4688C16.5631 28.2059 19.058 28.125 19.709 28.125C23.394 28.1279 26.4385 24.559 24.9596 20.4967C24.9608 20.2687 23.974 18.2174 23.974 18.1775H23.9735Z" fill="#EF4444"/>
</svg>
