<svg width="18" height="20" viewBox="0 0 18 20" fill="none" xmlns="http://www.w3.org/2000/svg">
<g clip-path="url(#clip0_2002_734)">
<path d="M8.74995 0C9.44136 0 9.99995 0.558594 9.99995 1.25V2.42578L10.5859 1.83984C10.9531 1.47266 11.5468 1.47266 11.9101 1.83984C12.2734 2.20703 12.2773 2.80078 11.9101 3.16406L9.99605 5.07812V7.82422L12.3945 6.42578L13.0859 3.84375C13.2187 3.34375 13.7343 3.04688 14.2343 3.17969C14.7343 3.3125 15.0312 3.82813 14.8984 4.32813L14.6953 5.08203L15.6171 4.54297C16.2148 4.19531 16.9804 4.39844 17.3281 4.99219C17.6757 5.58594 17.4765 6.35547 16.8789 6.70313L15.8906 7.28125L16.7382 7.50781C17.2382 7.64062 17.5351 8.15625 17.4023 8.65625C17.2695 9.15625 16.7539 9.45313 16.2539 9.32031L13.6093 8.61328L11.2304 10L13.6093 11.3867L16.2539 10.6797C16.7539 10.5469 17.2695 10.8437 17.4023 11.3437C17.5351 11.8437 17.2382 12.3594 16.7382 12.4922L15.8906 12.7188L16.8789 13.2969C17.4765 13.6445 17.6757 14.4102 17.3281 15.0078C16.9804 15.6055 16.2148 15.8047 15.6171 15.457L14.6953 14.918L14.8984 15.6719C15.0312 16.1719 14.7343 16.6875 14.2343 16.8203C13.7343 16.9531 13.2187 16.6563 13.0859 16.1563L12.3945 13.5742L9.99995 12.1758V14.9219L11.914 16.8359C12.2812 17.2031 12.2812 17.7969 11.914 18.1602C11.5468 18.5234 10.9531 18.5273 10.5898 18.1602L10.0039 17.5742V18.75C10.0039 19.4414 9.44527 20 8.75386 20C8.06246 20 7.50386 19.4414 7.50386 18.75V17.5742L6.91792 18.1602C6.55074 18.5273 5.95699 18.5273 5.5937 18.1602C5.23042 17.793 5.22652 17.1992 5.5937 16.8359L7.50777 14.9219V12.1758L5.10933 13.5742L4.41792 16.1563C4.28511 16.6563 3.76949 16.9531 3.26949 16.8203C2.76949 16.6875 2.47261 16.1719 2.60542 15.6719L2.80855 14.918L1.87886 15.4531C1.2812 15.8008 0.51558 15.5977 0.167924 15.0039C-0.179733 14.4102 0.0233923 13.6406 0.617142 13.293L1.60542 12.7148L0.757767 12.4883C0.257767 12.3555 -0.0391077 11.8398 0.0937048 11.3398C0.226517 10.8398 0.742142 10.543 1.24214 10.6758L3.88667 11.3828L6.26949 10L3.89058 8.61328L1.24605 9.32031C0.746049 9.45313 0.230424 9.15625 0.097611 8.65625C-0.0352015 8.15625 0.261674 7.64062 0.761674 7.50781L1.60933 7.28125L0.621049 6.70313C0.0233923 6.35547 -0.175826 5.58984 0.17183 4.99609C0.519486 4.40234 1.28511 4.19922 1.88277 4.54688L2.80464 5.08594L2.60152 4.33203C2.4687 3.83203 2.76558 3.31641 3.26558 3.18359C3.76558 3.05078 4.2812 3.34766 4.41402 3.84766L5.10542 6.42969L7.49995 7.82422V5.07422L5.58589 3.16406C5.2187 2.79688 5.2187 2.20312 5.58589 1.83984C5.95308 1.47656 6.54683 1.47266 6.91011 1.83984L7.49605 2.42578V1.25C7.49605 0.558594 8.05464 0 8.74605 0H8.74995Z" fill="white"/>
</g>
<defs>
<clipPath id="clip0_2002_734">
<path d="M0 0H17.5V20H0V0Z" fill="white"/>
</clipPath>
</defs>
</svg>
