<svg width="30" height="32" viewBox="0 0 30 32" fill="none" xmlns="http://www.w3.org/2000/svg">
<path d="M30 32H0V0H30V32Z" stroke="#E5E7EB"/>
<g clip-path="url(#clip0_2002_257)">
<path d="M1.5 5.5C2.32969 5.5 3 6.17031 3 7V19H13.5V11.5C13.5 10.6703 14.1703 10 15 10H25.5C27.9844 10 30 12.0156 30 14.5V25C30 25.8297 29.3297 26.5 28.5 26.5C27.6703 26.5 27 25.8297 27 25V23.5H16.5H15H3V25C3 25.8297 2.32969 26.5 1.5 26.5C0.670312 26.5 0 25.8297 0 25V7C0 6.17031 0.670312 5.5 1.5 5.5ZM8.25 10C9.24456 10 10.1984 10.3951 10.9017 11.0983C11.6049 11.8016 12 12.7554 12 13.75C12 14.7446 11.6049 15.6984 10.9017 16.4017C10.1984 17.1049 9.24456 17.5 8.25 17.5C7.25544 17.5 6.30161 17.1049 5.59835 16.4017C4.89509 15.6984 4.5 14.7446 4.5 13.75C4.5 12.7554 4.89509 11.8016 5.59835 11.0983C6.30161 10.3951 7.25544 10 8.25 10Z" fill="white"/>
</g>
<defs>
<clipPath id="clip0_2002_257">
<path d="M0 4H30V28H0V4Z" fill="white"/>
</clipPath>
</defs>
</svg>
