<svg width="20" height="16" viewBox="0 0 20 16" fill="none" xmlns="http://www.w3.org/2000/svg">
<path d="M20 16H0V0H20V16Z" stroke="#E5E7EB"/>
<path d="M9.75 1C9.33437 1 9 1.33437 9 1.75C9 2.16563 9.33437 2.5 9.75 2.5H10.5531L11.6344 4.5H6.96562L6.10938 3.3125C5.96875 3.11562 5.74062 3 5.5 3H3.75C3.33437 3 3 3.33437 3 3.75C3 4.16563 3.33437 4.5 3.75 4.5H5.11562L5.80625 5.45937L4.975 7.11875C4.6625 7.04063 4.33437 7 4 7C1.79063 7 0 8.79063 0 11C0 13.2094 1.79063 15 4 15C6.04063 15 7.72187 13.4719 7.96875 11.5H9.5C9.76562 11.5 10.0094 11.3594 10.1469 11.1313L12.7969 6.64687L13.475 7.9C12.575 8.63438 12 9.75 12 11C12 13.2094 13.7906 15 16 15C18.2094 15 20 13.2094 20 11C20 8.79063 18.2094 7 16 7C15.5781 7 15.1719 7.06562 14.7906 7.1875L11.7312 1.525C11.5562 1.2 11.2188 1 10.85 1H9.75ZM14.3313 9.49063L15.3406 11.3562C15.5375 11.7219 15.9938 11.8563 16.3563 11.6594C16.7188 11.4625 16.8562 11.0063 16.6594 10.6438L15.65 8.77812C15.7625 8.75937 15.8813 8.75 16 8.75C17.2437 8.75 18.25 9.75625 18.25 11C18.25 12.2437 17.2437 13.25 16 13.25C14.7563 13.25 13.75 12.2437 13.75 11C13.75 10.4187 13.9688 9.89063 14.3313 9.49063ZM4.1625 11.5H6.19375C5.96562 12.5031 5.06875 13.25 4 13.25C2.75625 13.25 1.75 12.2437 1.75 11C1.75 9.75625 2.75625 8.75 4 8.75C4.05313 8.75 4.10625 8.75313 4.15938 8.75625L3.40313 10.2719C3.12188 10.8375 3.53125 11.5031 4.1625 11.5031V11.5ZM5.21562 10L6.8 6.83437L9.07812 9.99687L9.075 10H5.2125H5.21562ZM8.04688 6H11.4344L9.90625 8.5875L8.04375 6H8.04688Z" fill="white"/>
</svg>
