<svg width="13" height="14" viewBox="0 0 13 14" fill="none" xmlns="http://www.w3.org/2000/svg">
<g clip-path="url(#clip0_2002_3327)">
<path d="M11.375 0C10.9375 0 7.875 0.875 7.875 4.8125V7.875C7.875 8.84023 8.65977 9.625 9.625 9.625H10.5V13.125C10.5 13.609 10.891 14 11.375 14C11.859 14 12.25 13.609 12.25 13.125V9.625V6.5625V0.875C12.25 0.391016 11.859 0 11.375 0ZM1.75 0.4375C1.75 0.213281 1.5832 0.0273438 1.35898 0.00273437C1.13477 -0.021875 0.935156 0.125781 0.885938 0.341797L0.0574219 4.06875C0.0191406 4.24102 0 4.41602 0 4.59102C0 5.84609 0.959766 6.87695 2.1875 6.98906V13.125C2.1875 13.609 2.57852 14 3.0625 14C3.54648 14 3.9375 13.609 3.9375 13.125V6.98906C5.16523 6.87695 6.125 5.84609 6.125 4.59102C6.125 4.41602 6.10586 4.24102 6.06758 4.06875L5.23906 0.341797C5.18984 0.123047 4.98477 -0.021875 4.76328 0.00273437C4.5418 0.0273438 4.375 0.213281 4.375 0.4375V4.10703C4.375 4.25469 4.25469 4.375 4.10703 4.375C3.96758 4.375 3.85273 4.26836 3.83906 4.12891L3.49727 0.399219C3.47813 0.172266 3.28945 0 3.0625 0C2.83555 0 2.64687 0.172266 2.62773 0.399219L2.28867 4.12891C2.275 4.26836 2.16016 4.375 2.0207 4.375C1.87305 4.375 1.75273 4.25469 1.75273 4.10703V0.4375H1.75ZM3.0707 4.59375H3.0625H3.0543L3.0625 4.57461L3.0707 4.59375Z" fill="#72918B"/>
</g>
<defs>
<clipPath id="clip0_2002_3327">
<path d="M0 0H12.25V14H0V0Z" fill="white"/>
</clipPath>
</defs>
</svg>
