<svg width="24" height="21" viewBox="0 0 24 21" fill="none" xmlns="http://www.w3.org/2000/svg">
<path d="M12.75 3.00353C9.06563 3.00353 5.94844 5.41759 4.88906 8.74572C6.46406 7.94884 8.24062 7.50353 10.125 7.50353H14.25C14.6625 7.50353 15 7.84103 15 8.25353C15 8.66603 14.6625 9.00353 14.25 9.00353H13.5H10.125C9.34687 9.00353 8.59219 9.09259 7.86563 9.25665C6.65156 9.53322 5.52188 10.0254 4.51875 10.6957C1.79531 12.5098 0 15.6082 0 19.1285V19.8785C0 20.502 0.501562 21.0035 1.125 21.0035C1.74844 21.0035 2.25 20.502 2.25 19.8785V19.1285C2.25 16.8457 3.22031 14.7926 4.77188 13.3535C5.7 16.8926 8.92031 19.5035 12.75 19.5035H12.7969C18.9891 19.4707 24 13.3676 24 5.84415C24 3.84728 23.6484 1.94884 23.0109 0.237904C22.8891 -0.0855338 22.4156 -0.0714712 22.2516 0.233216C21.3703 1.88322 19.6266 3.00353 17.625 3.00353H12.75Z" fill="white"/>
</svg>
