<svg width="13" height="14" viewBox="0 0 13 14" fill="none" xmlns="http://www.w3.org/2000/svg">
<g clip-path="url(#clip0_2002_3333)">
<path d="M5.75859 0.161328L1.69531 4.63203C1.58867 4.74687 1.53125 4.9 1.53125 5.05586C1.53125 5.40586 1.81289 5.6875 2.16289 5.6875H2.84375L0.836719 7.69453C0.721875 7.80937 0.65625 7.96797 0.65625 8.13203C0.65625 8.47383 0.932422 8.75 1.27422 8.75H2.1875L0.147656 11.1973C0.0519531 11.3121 0 11.457 0 11.6074C0 11.9629 0.287109 12.25 0.642578 12.25H5.25V13.125C5.25 13.609 5.64102 14 6.125 14C6.60898 14 7 13.609 7 13.125V12.25H11.6074C11.9629 12.25 12.25 11.9629 12.25 11.6074C12.25 11.457 12.198 11.3121 12.1023 11.1973L10.0625 8.75H10.9758C11.3176 8.75 11.5938 8.47383 11.5938 8.13203C11.5938 7.96797 11.5281 7.80937 11.4133 7.69453L9.40625 5.6875H10.0871C10.4344 5.6875 10.7188 5.40586 10.7188 5.05586C10.7188 4.9 10.6613 4.74687 10.5547 4.63203L6.49141 0.161328C6.39844 0.0574219 6.26445 0 6.125 0C5.98555 0 5.85156 0.0574219 5.75859 0.161328Z" fill="#72918B"/>
</g>
<defs>
<clipPath id="clip0_2002_3333">
<path d="M0 0H12.25V14H0V0Z" fill="white"/>
</clipPath>
</defs>
</svg>
