<svg width="20" height="16" viewBox="0 0 20 16" fill="none" xmlns="http://www.w3.org/2000/svg">
<path d="M6 2C2.6875 2 0 4.6875 0 8C0 11.3125 2.6875 14 6 14H14C17.3125 14 20 11.3125 20 8C20 4.6875 17.3125 2 14 2H6ZM15.5 5.25C15.8315 5.25 16.1495 5.3817 16.3839 5.61612C16.6183 5.85054 16.75 6.16848 16.75 6.5C16.75 6.83152 16.6183 7.14946 16.3839 7.38388C16.1495 7.6183 15.8315 7.75 15.5 7.75C15.1685 7.75 14.8505 7.6183 14.6161 7.38388C14.3817 7.14946 14.25 6.83152 14.25 6.5C14.25 6.16848 14.3817 5.85054 14.6161 5.61612C14.8505 5.3817 15.1685 5.25 15.5 5.25ZM12.25 9.5C12.25 9.16848 12.3817 8.85054 12.6161 8.61612C12.8505 8.3817 13.1685 8.25 13.5 8.25C13.8315 8.25 14.1495 8.3817 14.3839 8.61612C14.6183 8.85054 14.75 9.16848 14.75 9.5C14.75 9.83152 14.6183 10.1495 14.3839 10.3839C14.1495 10.6183 13.8315 10.75 13.5 10.75C13.1685 10.75 12.8505 10.6183 12.6161 10.3839C12.3817 10.1495 12.25 9.83152 12.25 9.5ZM5.25 6.25C5.25 5.83437 5.58437 5.5 6 5.5C6.41563 5.5 6.75 5.83437 6.75 6.25V7.25H7.75C8.16563 7.25 8.5 7.58437 8.5 8C8.5 8.41563 8.16563 8.75 7.75 8.75H6.75V9.75C6.75 10.1656 6.41563 10.5 6 10.5C5.58437 10.5 5.25 10.1656 5.25 9.75V8.75H4.25C3.83437 8.75 3.5 8.41563 3.5 8C3.5 7.58437 3.83437 7.25 4.25 7.25H5.25V6.25Z" fill="white"/>
</svg>
