<svg width="24" height="24" viewBox="0 0 24 24" fill="none" xmlns="http://www.w3.org/2000/svg">
<path d="M24 24H0V0H24V24Z" stroke="#E5E7EB"/>
<path d="M12.75 4.49999C9.06563 4.49999 5.94844 6.91405 4.88906 10.2422C6.46406 9.4453 8.24063 8.99999 10.125 8.99999H14.25C14.6625 8.99999 15 9.33749 15 9.74999C15 10.1625 14.6625 10.5 14.25 10.5H13.5H10.125C9.34688 10.5 8.59219 10.5891 7.86563 10.7531C6.65156 11.0297 5.52187 11.5219 4.51875 12.1922C1.79531 14.0062 0 17.1047 0 20.625V21.375C0 21.9984 0.501562 22.5 1.125 22.5C1.74844 22.5 2.25 21.9984 2.25 21.375V20.625C2.25 18.3422 3.22031 16.2891 4.77188 14.85C5.7 18.3891 8.92031 21 12.75 21H12.7969C18.9891 20.9672 24 14.8641 24 7.34061C24 5.34374 23.6484 3.4453 23.0109 1.73436C22.8891 1.41093 22.4156 1.42499 22.2516 1.72968C21.3703 3.37968 19.6266 4.49999 17.625 4.49999H12.75Z" fill="#72918B"/>
</svg>
