<svg width="16" height="14" viewBox="0 0 16 14" fill="none" xmlns="http://www.w3.org/2000/svg">
<g clip-path="url(#clip0_2002_3336)">
<path d="M7.36892 1.91142C7.67243 1.6954 8.07712 1.6954 8.38064 1.91142C8.99587 2.33524 9.74782 2.62509 10.4998 2.62509C11.2353 2.62509 12.0146 2.32977 12.6162 1.91142C12.9416 1.67899 13.3845 1.69813 13.6881 1.9579C14.0818 2.28329 14.5767 2.53212 15.0717 2.64696C15.542 2.75634 15.8345 3.22665 15.7252 3.69696C15.6158 4.16727 15.1455 4.45985 14.6752 4.35048C14.0052 4.19462 13.4474 3.89931 13.0838 3.66688C12.2908 4.09345 11.4021 4.37509 10.4998 4.37509C9.62751 4.37509 8.84275 4.10438 8.30134 3.85829C8.14275 3.78446 7.99782 3.71337 7.87478 3.64774C7.75173 3.71337 7.60954 3.7872 7.44821 3.85829C6.90681 4.10438 6.12204 4.37509 5.24978 4.37509C4.34743 4.37509 3.45876 4.09345 2.66579 3.66962C2.29939 3.89931 1.74431 4.19735 1.07439 4.35321C0.604073 4.46259 0.133761 4.17001 0.0243858 3.6997C-0.0849892 3.22938 0.207589 2.75907 0.677901 2.6497C1.17009 2.53212 1.66775 2.28329 2.05876 1.9579C2.36228 1.69813 2.80525 1.68173 3.13064 1.91142C3.73767 2.32977 4.51423 2.62509 5.24978 2.62509C6.00173 2.62509 6.75368 2.33524 7.36892 1.91142ZM8.38064 9.78642C8.99587 10.2102 9.74782 10.5001 10.4998 10.5001C11.2353 10.5001 12.0146 10.2048 12.6162 9.78642C12.9416 9.55399 13.3845 9.57313 13.6881 9.8329C14.0818 10.1583 14.5767 10.4071 15.0717 10.522C15.542 10.6313 15.8345 11.1017 15.7252 11.572C15.6158 12.0423 15.1455 12.3349 14.6752 12.2255C14.0052 12.0696 13.4474 11.7743 13.0838 11.5419C12.2908 11.9684 11.4021 12.2501 10.4998 12.2501C9.62751 12.2501 8.84275 11.9794 8.30134 11.7333C8.14275 11.6595 7.99782 11.5884 7.87478 11.5227C7.75173 11.5884 7.60954 11.6622 7.44821 11.7333C6.90681 11.9794 6.12204 12.2501 5.24978 12.2501C4.34743 12.2501 3.45876 11.9684 2.66579 11.5446C2.29939 11.7743 1.74431 12.0724 1.07439 12.2282C0.604073 12.3376 0.133761 12.045 0.0243858 11.5747C-0.0849892 11.1044 0.207589 10.6341 0.677901 10.5247C1.17282 10.4099 1.66775 10.161 2.0615 9.83563C2.36501 9.5786 2.80798 9.55946 3.13337 9.78915C3.73767 10.2048 4.51423 10.5001 5.24978 10.5001C6.00173 10.5001 6.75368 10.2102 7.36892 9.78642C7.67243 9.5704 8.07712 9.5704 8.38064 9.78642ZM8.38064 5.84892C8.99587 6.27274 9.74782 6.56259 10.4998 6.56259C11.2353 6.56259 12.0146 6.26727 12.6162 5.84892C12.9416 5.61649 13.3845 5.63563 13.6881 5.8954C14.0818 6.22079 14.5767 6.46962 15.0717 6.58446C15.542 6.69384 15.8345 7.16415 15.7252 7.63446C15.6158 8.10477 15.1455 8.39735 14.6752 8.28798C14.0052 8.13212 13.4474 7.83681 13.0838 7.60438C12.2908 8.03095 11.4021 8.31259 10.4998 8.31259C9.62751 8.31259 8.84275 8.04188 8.30134 7.79579C8.14275 7.72196 7.99782 7.65087 7.87478 7.58524C7.75173 7.65087 7.60954 7.7247 7.44821 7.79579C6.90681 8.04188 6.12204 8.31259 5.24978 8.31259C4.34743 8.31259 3.45876 8.03095 2.66579 7.60712C2.29939 7.83681 1.74431 8.13485 1.07439 8.29071C0.604073 8.40009 0.133761 8.10751 0.0243858 7.6372C-0.0849892 7.16688 0.207589 6.69657 0.677901 6.5872C1.17282 6.47235 1.66775 6.22352 2.0615 5.89813C2.36501 5.63837 2.80798 5.62196 3.13337 5.85165C3.73767 6.26727 4.51423 6.56259 5.24978 6.56259C6.00173 6.56259 6.75368 6.27274 7.36892 5.84892C7.67243 5.6329 8.07712 5.6329 8.38064 5.84892Z" fill="#72918B"/>
</g>
<defs>
<clipPath id="clip0_2002_3336">
<path d="M0 0H15.75V14H0V0Z" fill="white"/>
</clipPath>
</defs>
</svg>
