<svg
  width="18"
  height="14"
  viewBox="0 0 18 14"
  fill="none"
  xmlns="http://www.w3.org/2000/svg"
>
  <path
    d="M1.6875 0C0.755859 0 0 0.755859 0 1.6875V12.3125C0 13.2441 0.755859 14 1.6875 14H16.3125C17.2441 14 18 13.2441 18 12.3125V1.6875C18 0.755859 17.2441 0 16.3125 0H1.6875ZM16.25 1.75C16.3184 1.75 16.375 1.80664 16.375 1.875V3.5H1.625V1.875C1.625 1.80664 1.68164 1.75 1.75 1.75H16.25ZM1.625 12.125V5.25H16.375V12.125C16.375 12.1934 16.3184 12.25 16.25 12.25H1.75C1.68164 12.25 1.625 12.1934 1.625 12.125ZM3.5 9.75H6.75C7.16406 9.75 7.5 10.0859 7.5 10.5C7.5 10.9141 7.16406 11.25 6.75 11.25H3.5C3.08594 11.25 2.75 10.9141 2.75 10.5C2.75 10.0859 3.08594 9.75 3.5 9.75ZM9.25 9.75H14.5C14.9141 9.75 15.25 10.0859 15.25 10.5C15.25 10.9141 14.9141 11.25 14.5 11.25H9.25C8.83594 11.25 8.5 10.9141 8.5 10.5C8.5 10.0859 8.83594 9.75 9.25 9.75Z"
    fill="#72918B"
  />
</svg>
