<svg width="30" height="24" viewBox="0 0 30 24" fill="none" xmlns="http://www.w3.org/2000/svg">
<g clip-path="url(#clip0_2001_259)">
<path d="M15 0C15.4973 0 15.9742 0.197544 16.3258 0.549175C16.6775 0.900805 16.875 1.37772 16.875 1.875C16.875 2.37228 16.6775 2.84919 16.3258 3.20083C15.9742 3.55246 15.4973 3.75 15 3.75C14.5027 3.75 14.0258 3.55246 13.6742 3.20083C13.3225 2.84919 13.125 2.37228 13.125 1.875C13.125 1.37772 13.3225 0.900805 13.6742 0.549175C14.0258 0.197544 14.5027 0 15 0ZM17.0953 7.70156L17.6156 11.8594C17.6906 12.4781 17.2547 13.0359 16.6406 13.1156C16.0266 13.1953 15.4641 12.7547 15.3844 12.1406L15.1781 10.5H14.8219L14.6156 12.1406C14.5406 12.7594 13.9781 13.1953 13.3594 13.1156C12.7406 13.0359 12.3047 12.4781 12.3844 11.8594L12.9047 7.69687L11.9766 8.48438C11.5031 8.8875 10.7906 8.82656 10.3922 8.35312C9.99375 7.87969 10.05 7.16719 10.5234 6.76875L11.8312 5.6625C12.7172 4.9125 13.8422 4.5 15 4.5C16.1578 4.5 17.2828 4.9125 18.1688 5.65781L19.4766 6.76406C19.95 7.16719 20.0109 7.875 19.6078 8.34844C19.2047 8.82188 18.4969 8.88281 18.0234 8.47969L17.0953 7.69687V7.70156ZM1.875 3C2.91094 3 3.75 3.83906 3.75 4.875V6.75V10.5V12.3844C3.75 13.1813 4.06406 13.9453 4.62656 14.5078L7.02188 16.9031C7.41094 17.2922 8.02031 17.3531 8.475 17.0484C9.07969 16.6453 9.16406 15.7875 8.64844 15.2766L7.93594 14.5641L6.43594 13.0641C5.85 12.4781 5.85 11.5266 6.43594 10.9406C7.02188 10.3547 7.97344 10.3547 8.55938 10.9406L10.0594 12.4406L10.7719 13.1531L11.9578 14.3391C12.9422 15.3234 13.4953 16.6594 13.4953 18.0516V21.75C13.4953 22.9922 12.4875 24 11.2453 24H8.12344C7.32656 24 6.5625 23.6859 6 23.1234L1.31719 18.4406C0.473438 17.5969 0 16.4531 0 15.2578V10.5V7.5V4.875C0 3.83906 0.839062 3 1.875 3ZM28.125 3C29.1609 3 30 3.83906 30 4.875V7.5V10.5V15.2578C30 16.4531 29.5266 17.5969 28.6828 18.4406L24 23.1234C23.4375 23.6859 22.6734 24 21.8766 24H18.75C17.5078 24 16.5 22.9922 16.5 21.75V18.0516C16.5 16.6594 17.0531 15.3234 18.0375 14.3391L19.2234 13.1531L19.9359 12.4406L21.4359 10.9406C22.0219 10.3547 22.9734 10.3547 23.5594 10.9406C24.1453 11.5266 24.1453 12.4781 23.5594 13.0641L22.0594 14.5641L21.3469 15.2766C20.8312 15.7922 20.9156 16.6453 21.5203 17.0484C21.975 17.3531 22.5844 17.2922 22.9734 16.9031L25.3688 14.5078C25.9313 13.9453 26.2453 13.1813 26.2453 12.3844V10.5V6.75V4.875C26.2453 3.83906 27.0844 3 28.1203 3H28.125Z" fill="#72918B"/>
</g>
<defs>
<clipPath id="clip0_2001_259">
<path d="M0 0H30V24H0V0Z" fill="white"/>
</clipPath>
</defs>
</svg>
