<svg width="32" height="23" viewBox="0 0 32 23" fill="none" xmlns="http://www.w3.org/2000/svg">
<path d="M0 8.4375C0 3.77578 3.77578 0 8.4375 0H9C10.2445 0 11.25 1.00547 11.25 2.25C11.25 3.49453 10.2445 4.5 9 4.5H8.4375C6.26484 4.5 4.5 6.26484 4.5 8.4375V9H9C11.482 9 13.5 11.018 13.5 13.5V18C13.5 20.482 11.482 22.5 9 22.5H4.5C2.01797 22.5 0 20.482 0 18V15.75V13.5V8.4375ZM18 8.4375C18 3.77578 21.7758 0 26.4375 0H27C28.2445 0 29.25 1.00547 29.25 2.25C29.25 3.49453 28.2445 4.5 27 4.5H26.4375C24.2648 4.5 22.5 6.26484 22.5 8.4375V9H27C29.482 9 31.5 11.018 31.5 13.5V18C31.5 20.482 29.482 22.5 27 22.5H22.5C20.018 22.5 18 20.482 18 18V15.75V13.5V8.4375Z" fill="white" fill-opacity="0.5"/>
</svg>
