<svg width="16" height="16" viewBox="0 0 16 16" fill="none" xmlns="http://www.w3.org/2000/svg">
<path d="M3 10C1.34375 10 0 8.65625 0 7C0 5.67188 0.8625 4.54375 2.05938 4.15C2.02188 3.94063 2 3.72187 2 3.5C2 1.56562 3.56562 0 5.5 0C6.84688 0 8.01562 0.759375 8.6 1.875C9.05938 1.34063 9.74063 1 10.5 1C11.8813 1 13 2.11875 13 3.5C13 3.67188 12.9812 3.8375 12.95 4C12.9656 4 12.9844 4 13 4C14.6562 4 16 5.34375 16 7C16 8.65625 14.6562 10 13 10H3ZM2.7875 11.625C2.82812 11.5469 2.90937 11.5 3 11.5C3.09063 11.5 3.16875 11.5469 3.2125 11.625L4.30937 13.6438C4.4375 13.8781 4.50313 14.1375 4.50313 14.4031V14.4969C4.50313 15.325 3.83125 15.9969 3.00312 15.9969C2.175 15.9969 1.50312 15.325 1.50312 14.4969V14.4031C1.50312 14.1375 1.56875 13.875 1.69687 13.6438L2.7875 11.625ZM7.7875 11.625C7.82812 11.5469 7.90938 11.5 8 11.5C8.09062 11.5 8.16875 11.5469 8.2125 11.625L9.30937 13.6438C9.4375 13.8781 9.50313 14.1375 9.50313 14.4031V14.4969C9.50313 15.325 8.83125 15.9969 8.00313 15.9969C7.175 15.9969 6.50313 15.325 6.50313 14.4969V14.4031C6.50313 14.1375 6.56875 13.875 6.69688 13.6438L7.7875 11.625ZM11.6906 13.6438L12.7875 11.625C12.8281 11.5469 12.9094 11.5 13 11.5C13.0906 11.5 13.1687 11.5469 13.2125 11.625L14.3094 13.6438C14.4375 13.8781 14.5031 14.1375 14.5031 14.4031V14.4969C14.5031 15.325 13.8313 15.9969 13.0031 15.9969C12.175 15.9969 11.5031 15.325 11.5031 14.4969V14.4031C11.5031 14.1375 11.5687 13.875 11.6969 13.6438H11.6906Z" fill="#72918B"/>
</svg>
