<svg width="24" height="24" viewBox="0 0 24 24" fill="none" xmlns="http://www.w3.org/2000/svg">
<g clip-path="url(#clip0_2002_526)">
<path d="M3 6.18281C3 5.25469 3.75469 4.5 4.68281 4.5C5.12813 4.5 5.55469 4.67812 5.87344 4.99219L6.63281 5.75156C5.64844 7.575 5.81719 9.85312 7.14375 11.5172L7.07812 11.5781C6.6375 12.0188 6.6375 12.7312 7.07812 13.1672C7.51875 13.6031 8.23125 13.6078 8.66719 13.1672L16.1719 5.67188C16.6125 5.23125 16.6125 4.51875 16.1719 4.08281C15.7312 3.64687 15.0188 3.64219 14.5828 4.08281L14.5219 4.14375C12.8578 2.81719 10.575 2.64844 8.75625 3.63281L7.99219 2.87344C7.11562 1.99219 5.925 1.5 4.68281 1.5C2.09531 1.5 0 3.59531 0 6.18281V21C0 21.8297 0.670312 22.5 1.5 22.5C2.32969 22.5 3 21.8297 3 21V6.18281ZM12 16.5C12.3978 16.5 12.7794 16.342 13.0607 16.0607C13.342 15.7794 13.5 15.3978 13.5 15C13.5 14.6022 13.342 14.2206 13.0607 13.9393C12.7794 13.658 12.3978 13.5 12 13.5C11.6022 13.5 11.2206 13.658 10.9393 13.9393C10.658 14.2206 10.5 14.6022 10.5 15C10.5 15.3978 10.658 15.7794 10.9393 16.0607C11.2206 16.342 11.6022 16.5 12 16.5ZM15 19.5C15 19.1022 14.842 18.7206 14.5607 18.4393C14.2794 18.158 13.8978 18 13.5 18C13.1022 18 12.7206 18.158 12.4393 18.4393C12.158 18.7206 12 19.1022 12 19.5C12 19.8978 12.158 20.2794 12.4393 20.5607C12.7206 20.842 13.1022 21 13.5 21C13.8978 21 14.2794 20.842 14.5607 20.5607C14.842 20.2794 15 19.8978 15 19.5ZM15 13.5C15.3978 13.5 15.7794 13.342 16.0607 13.0607C16.342 12.7794 16.5 12.3978 16.5 12C16.5 11.6022 16.342 11.2206 16.0607 10.9393C15.7794 10.658 15.3978 10.5 15 10.5C14.6022 10.5 14.2206 10.658 13.9393 10.9393C13.658 11.2206 13.5 11.6022 13.5 12C13.5 12.3978 13.658 12.7794 13.9393 13.0607C14.2206 13.342 14.6022 13.5 15 13.5ZM18 16.5C18 16.1022 17.842 15.7206 17.5607 15.4393C17.2794 15.158 16.8978 15 16.5 15C16.1022 15 15.7206 15.158 15.4393 15.4393C15.158 15.7206 15 16.1022 15 16.5C15 16.8978 15.158 17.2794 15.4393 17.5607C15.7206 17.842 16.1022 18 16.5 18C16.8978 18 17.2794 17.842 17.5607 17.5607C17.842 17.2794 18 16.8978 18 16.5ZM18 10.5C18.3978 10.5 18.7794 10.342 19.0607 10.0607C19.342 9.77936 19.5 9.39782 19.5 9C19.5 8.60218 19.342 8.22064 19.0607 7.93934C18.7794 7.65804 18.3978 7.5 18 7.5C17.6022 7.5 17.2206 7.65804 16.9393 7.93934C16.658 8.22064 16.5 8.60218 16.5 9C16.5 9.39782 16.658 9.77936 16.9393 10.0607C17.2206 10.342 17.6022 10.5 18 10.5ZM21 13.5C21 13.1022 20.842 12.7206 20.5607 12.4393C20.2794 12.158 19.8978 12 19.5 12C19.1022 12 18.7206 12.158 18.4393 12.4393C18.158 12.7206 18 13.1022 18 13.5C18 13.8978 18.158 14.2794 18.4393 14.5607C18.7206 14.842 19.1022 15 19.5 15C19.8978 15 20.2794 14.842 20.5607 14.5607C20.842 14.2794 21 13.8978 21 13.5ZM22.5 12C22.8978 12 23.2794 11.842 23.5607 11.5607C23.842 11.2794 24 10.8978 24 10.5C24 10.1022 23.842 9.72064 23.5607 9.43934C23.2794 9.15804 22.8978 9 22.5 9C22.1022 9 21.7206 9.15804 21.4393 9.43934C21.158 9.72064 21 10.1022 21 10.5C21 10.8978 21.158 11.2794 21.4393 11.5607C21.7206 11.842 22.1022 12 22.5 12Z" fill="white"/>
</g>
<defs>
<clipPath id="clip0_2002_526">
<path d="M0 0H24V24H0V0Z" fill="white"/>
</clipPath>
</defs>
</svg>
