<svg width="30" height="24" viewBox="0 0 30 24" fill="none" xmlns="http://www.w3.org/2000/svg">
<g clip-path="url(#clip0_2002_507)">
<path d="M3 7.5C3 4.18594 5.68594 1.5 9 1.5H21C24.3141 1.5 27 4.18594 27 7.5V9.075C25.2891 9.42188 24 10.9359 24 12.75V15H6V12.75C6 10.9359 4.71094 9.42188 3 9.075V7.5ZM25.5 12.75C25.5 11.7703 26.1281 10.9359 27 10.6266C27.2344 10.5422 27.4875 10.5 27.75 10.5C28.9922 10.5 30 11.5078 30 12.75V21C30 21.8297 29.3297 22.5 28.5 22.5H27C26.1703 22.5 25.5 21.8297 25.5 21H4.5C4.5 21.8297 3.82969 22.5 3 22.5H1.5C0.670312 22.5 0 21.8297 0 21V12.75C0 11.5078 1.00781 10.5 2.25 10.5C2.5125 10.5 2.76562 10.5469 3 10.6266C3.87188 10.9359 4.5 11.7703 4.5 12.75V15V16.5H6H24H25.5V15V12.75Z" fill="white"/>
</g>
<defs>
<clipPath id="clip0_2002_507">
<path d="M0 0H30V24H0V0Z" fill="white"/>
</clipPath>
</defs>
</svg>
