<svg width="24" height="24" viewBox="0 0 24 24" fill="none" xmlns="http://www.w3.org/2000/svg">
<path d="M16.9453 0.0562765C17.1797 0.154714 17.3485 0.365652 17.3953 0.614089L18.3282 5.6719L23.386 6.60003C23.6344 6.6469 23.8453 6.81565 23.9438 7.05003C24.0422 7.2844 24.0141 7.55159 23.8688 7.76253L20.9485 12L23.8688 16.2328C24.0141 16.4438 24.0422 16.711 23.9438 16.9453C23.8453 17.1797 23.6344 17.3485 23.386 17.3953L18.3282 18.3282L17.3953 23.386C17.3485 23.6344 17.1797 23.8453 16.9453 23.9438C16.711 24.0422 16.4438 24.0141 16.2328 23.8688L12 20.9485L7.76721 23.8688C7.55628 24.0141 7.28909 24.0422 7.05471 23.9438C6.82034 23.8453 6.65159 23.6344 6.60471 23.386L5.6719 18.3282L0.614089 17.3953C0.365652 17.3485 0.154714 17.1797 0.0562765 16.9453C-0.042161 16.711 -0.014036 16.4438 0.131277 16.2328L3.05159 12L0.131277 7.76721C-0.014036 7.55628 -0.042161 7.28909 0.0562765 7.05471C0.154714 6.82034 0.365652 6.65159 0.614089 6.60471L5.6719 5.6719L6.60471 0.614089C6.65159 0.365652 6.82034 0.154714 7.05471 0.0562765C7.28909 -0.042161 7.55628 -0.014036 7.76721 0.131277L12 3.05159L16.2328 0.131277C16.4438 -0.014036 16.711 -0.042161 16.9453 0.0562765ZM7.50003 12C7.50003 10.8066 7.97413 9.66196 8.81805 8.81805C9.66196 7.97413 10.8066 7.50003 12 7.50003C13.1935 7.50003 14.3381 7.97413 15.182 8.81805C16.0259 9.66196 16.5 10.8066 16.5 12C16.5 13.1935 16.0259 14.3381 15.182 15.182C14.3381 16.0259 13.1935 16.5 12 16.5C10.8066 16.5 9.66196 16.0259 8.81805 15.182C7.97413 14.3381 7.50003 13.1935 7.50003 12ZM18 12C18 10.4087 17.3679 8.8826 16.2427 7.75739C15.1174 6.63217 13.5913 6.00003 12 6.00003C10.4087 6.00003 8.8826 6.63217 7.75739 7.75739C6.63217 8.8826 6.00003 10.4087 6.00003 12C6.00003 13.5913 6.63217 15.1174 7.75739 16.2427C8.8826 17.3679 10.4087 18 12 18C13.5913 18 15.1174 17.3679 16.2427 16.2427C17.3679 15.1174 18 13.5913 18 12Z" fill="white"/>
</svg>
