<svg width="9" height="16" viewBox="0 0 9 16" fill="none" xmlns="http://www.w3.org/2000/svg">
<path d="M4.5 2C3.67188 2 3 2.67188 3 3.5V8.64062C3 9.18125 2.77812 9.6375 2.52187 9.96875C2.19375 10.3938 2 10.9219 2 11.5C2 12.8813 3.11875 14 4.5 14C5.88125 14 7 12.8813 7 11.5C7 10.9219 6.80625 10.3938 6.47813 9.97188C6.22188 9.64062 6 9.18437 6 8.64375V3.5C6 2.67188 5.32812 2 4.5 2ZM1 3.5C1 1.56875 2.56562 0 4.5 0C6.43437 0 8 1.56562 8 3.5V8.64062C8 8.64375 8.00313 8.65 8.00625 8.65938C8.0125 8.67813 8.03125 8.70937 8.05937 8.74687C8.65 9.50937 9 10.4656 9 11.5C9 13.9844 6.98438 16 4.5 16C2.01562 16 0 13.9844 0 11.5C0 10.4625 0.35 9.50625 0.940625 8.74687C0.96875 8.70937 0.9875 8.67813 0.99375 8.65938C0.996875 8.65 1 8.64375 1 8.64062V3.5ZM6 11.5C6 12.3281 5.32812 13 4.5 13C3.67188 13 3 12.3281 3 11.5C3 10.8469 3.41875 10.2906 4 10.0844V6.5C4 6.225 4.225 6 4.5 6C4.775 6 5 6.225 5 6.5V10.0844C5.58125 10.2906 6 10.8469 6 11.5Z" fill="#72918B"/>
</svg>
