<svg width="14" height="16" viewBox="0 0 14 16" fill="none" xmlns="http://www.w3.org/2000/svg">
<g clip-path="url(#clip0_2002_3321)">
<path d="M3 0C1.34375 0 0 1.34375 0 3V11C0 12.5 1.1 13.7406 2.53437 13.9656L1.09687 15.4031C0.878125 15.6219 1.03437 16 1.34375 16H2.58437C2.85 16 3.10313 15.8938 3.29063 15.7063L5 14H9L10.7063 15.7063C10.8938 15.8938 11.1469 16 11.4125 16H12.6562C12.9688 16 13.125 15.6219 12.9031 15.4031L11.4656 13.9656C12.9031 13.7437 14 12.5 14 11V3C14 1.34375 12.6562 0 11 0H3ZM2 3C2 2.44688 2.44688 2 3 2H11C11.5531 2 12 2.44688 12 3V6C12 6.55312 11.5531 7 11 7H3C2.44688 7 2 6.55312 2 6V3ZM7 9C7.39782 9 7.77936 9.15804 8.06066 9.43934C8.34196 9.72064 8.5 10.1022 8.5 10.5C8.5 10.8978 8.34196 11.2794 8.06066 11.5607C7.77936 11.842 7.39782 12 7 12C6.60218 12 6.22064 11.842 5.93934 11.5607C5.65804 11.2794 5.5 10.8978 5.5 10.5C5.5 10.1022 5.65804 9.72064 5.93934 9.43934C6.22064 9.15804 6.60218 9 7 9Z" fill="white"/>
</g>
<defs>
<clipPath id="clip0_2002_3321">
<path d="M0 0H14V16H0V0Z" fill="white"/>
</clipPath>
</defs>
</svg>
