<svg width="16" height="16" viewBox="0 0 16 16" fill="none" xmlns="http://www.w3.org/2000/svg">
<path d="M9 1C9 1.55313 9.44687 2 10 2H11C11.5531 2 12 2.44688 12 3C12 3.55312 11.5531 4 11 4H1C0.446875 4 0 4.44688 0 5C0 5.55312 0.446875 6 1 6H11C12.6562 6 14 4.65625 14 3C14 1.34375 12.6562 0 11 0H10C9.44687 0 9 0.446875 9 1ZM11 12C11 12.5531 11.4469 13 12 13H13C14.6562 13 16 11.6562 16 10C16 8.34375 14.6562 7 13 7H1C0.446875 7 0 7.44688 0 8C0 8.55313 0.446875 9 1 9H13C13.5531 9 14 9.44687 14 10C14 10.5531 13.5531 11 13 11H12C11.4469 11 11 11.4469 11 12ZM4 16H5C6.65625 16 8 14.6562 8 13C8 11.3438 6.65625 10 5 10H1C0.446875 10 0 10.4469 0 11C0 11.5531 0.446875 12 1 12H5C5.55312 12 6 12.4469 6 13C6 13.5531 5.55312 14 5 14H4C3.44688 14 3 14.4469 3 15C3 15.5531 3.44688 16 4 16Z" fill="#72918B"/>
</svg>
