<svg width="21" height="24" viewBox="0 0 21 24" fill="none" xmlns="http://www.w3.org/2000/svg">
<path d="M10.5 0C11.3297 0 12 0.670312 12 1.5V2.91094L12.7031 2.20781C13.1437 1.76719 13.8562 1.76719 14.2922 2.20781C14.7281 2.64844 14.7328 3.36094 14.2922 3.79688L11.9953 6.09375V9.38906L14.8734 7.71094L15.7031 4.6125C15.8625 4.0125 16.4812 3.65625 17.0812 3.81563C17.6812 3.975 18.0375 4.59375 17.8781 5.19375L17.6344 6.09844L18.7406 5.45156C19.4578 5.03438 20.3766 5.27813 20.7937 5.99063C21.2109 6.70312 20.9719 7.62656 20.2547 8.04375L19.0687 8.7375L20.0859 9.00937C20.6859 9.16875 21.0422 9.7875 20.8828 10.3875C20.7234 10.9875 20.1047 11.3438 19.5047 11.1844L16.3312 10.3359L13.4766 12L16.3312 13.6641L19.5047 12.8156C20.1047 12.6562 20.7234 13.0125 20.8828 13.6125C21.0422 14.2125 20.6859 14.8312 20.0859 14.9906L19.0687 15.2625L20.2547 15.9562C20.9719 16.3734 21.2109 17.2922 20.7937 18.0094C20.3766 18.7266 19.4578 18.9656 18.7406 18.5484L17.6344 17.9016L17.8781 18.8063C18.0375 19.4062 17.6812 20.025 17.0812 20.1844C16.4812 20.3438 15.8625 19.9875 15.7031 19.3875L14.8734 16.2891L12 14.6109V17.9062L14.2969 20.2031C14.7375 20.6437 14.7375 21.3562 14.2969 21.7922C13.8562 22.2281 13.1437 22.2328 12.7078 21.7922L12.0047 21.0891V22.5C12.0047 23.3297 11.3344 24 10.5047 24C9.67499 24 9.00468 23.3297 9.00468 22.5V21.0891L8.30156 21.7922C7.86093 22.2328 7.14843 22.2328 6.71249 21.7922C6.27656 21.3516 6.27187 20.6391 6.71249 20.2031L9.00937 17.9062V14.6109L6.13124 16.2891L5.30156 19.3875C5.14218 19.9875 4.52343 20.3438 3.92343 20.1844C3.32343 20.025 2.96718 19.4062 3.12656 18.8063L3.37031 17.9016L2.25468 18.5438C1.53749 18.9609 0.618744 18.7172 0.201557 18.0047C-0.21563 17.2922 0.0281196 16.3687 0.74062 15.9516L1.92656 15.2578L0.909369 14.9859C0.30937 14.8266 -0.0468804 14.2078 0.112495 13.6078C0.27187 13.0078 0.890619 12.6516 1.49062 12.8109L4.66406 13.6594L7.52343 12L4.66874 10.3359L1.49531 11.1844C0.895307 11.3438 0.276557 10.9875 0.117182 10.3875C-0.0421929 9.7875 0.314057 9.16875 0.914057 9.00937L1.93124 8.7375L0.745307 8.04375C0.0281195 7.62656 -0.210943 6.70781 0.206245 5.99531C0.623432 5.28281 1.54218 5.03906 2.25937 5.45625L3.36562 6.10312L3.12187 5.19844C2.96249 4.59844 3.31874 3.97969 3.91874 3.82031C4.51874 3.66094 5.13749 4.01719 5.29687 4.61719L6.12656 7.71563L8.99999 9.38906V6.08906L6.70312 3.79688C6.26249 3.35625 6.26249 2.64375 6.70312 2.20781C7.14374 1.77187 7.85624 1.76719 8.29218 2.20781L8.99531 2.91094V1.5C8.99531 0.670312 9.66562 0 10.4953 0H10.5Z" fill="white"/>
</svg>
